<svg width="784" height="310" viewBox="0 0 784 310" fill="none" xmlns="http://www.w3.org/2000/svg">
<g clip-path="url(#clip0_14789_4100)">
<path d="M599.58 68.6299C624.321 67.0608 651.068 69.7244 670.855 86.002C687.592 99.4031 694.981 121.374 696.551 142.356C698.239 169.024 696.738 200.404 678.983 222.043C665.646 238.296 644.729 243.574 624.846 245.29C600.273 246.791 572.213 245.177 552.41 228.738C532.443 212.166 526.257 182.966 526.004 158.277C525.774 135.582 530.7 110.543 545.305 92.5518C558.301 76.5416 579.613 70.364 599.362 68.6602C599.435 68.6502 599.507 68.6398 599.58 68.6299ZM663.311 147.713C661.201 110.451 641.616 94.1098 604.943 96.21C592.95 97.3114 580.902 100.451 573.059 110.178C563.932 121.501 560.64 135.803 560.039 149.99C558.293 191.173 569.996 222.936 617.955 218.716C659.854 216.107 665.248 181.943 663.311 147.713Z" fill="white"/>
<path d="M487.327 68.5293C490.635 69.0127 497.016 68.8489 500.538 68.8382C508.068 68.7597 515.602 68.7807 523.132 68.9017C520.747 75.7844 515.927 86.0171 512.941 92.9795C506.694 107.953 500.286 122.861 493.724 137.7L466.181 200.687C459.765 215.386 452.993 231.327 446.225 245.822C435.104 245.71 423.98 245.684 412.859 245.743C407.27 230.663 399.495 213.595 393.09 198.585L360.987 123.106L337.73 68.7968C350.144 68.5944 362.589 68.9453 375.106 68.7375C376.581 73.0985 379.299 79.2771 381.079 83.6604L394.53 116.618L410.803 156.932C416.76 171.879 423.593 189.354 430.403 203.947C435.204 195.31 441.597 179.577 445.513 170.124C452.151 154.333 458.643 138.481 464.987 122.57C469.511 111.277 474.438 100.01 478.959 88.6847C481.639 81.9699 484.839 75.3443 487.327 68.5293Z" fill="white"/>
<path d="M217.345 68.873C230.28 69.1517 244.272 68.9017 257.265 68.9017C245.312 82.0419 233.829 95.6727 222.097 109.016C211.56 121.002 200.574 132.764 190.725 145.322C189.711 146.615 187.22 149.486 187.102 151.136C186.702 156.704 252.718 234.08 260.76 243.604C261.325 244.182 261.404 244.398 261.764 245.127C260.041 245.8 224.868 245.424 219.699 245.631L174.781 190.439C168.402 182.482 161.734 174.586 155.805 166.29C152.725 161.979 151.295 159.134 151.247 153.872C151.181 146.532 154.503 142.319 159.053 136.954C162.409 132.945 165.918 128.857 169.37 124.83L202.648 86.4458C207.393 80.8934 213.04 74.6781 217.345 68.873Z" fill="white"/>
<path d="M97.3658 69.0768C107.404 68.735 118.657 68.9302 128.756 68.8808C128.402 86.281 128.898 105.539 128.951 123.05L128.853 196.101L128.866 228.26C128.873 232.095 129.232 241.846 128.559 245.082L127.924 245.468C117.355 245.399 106.786 245.438 96.2185 245.585C95.5562 220.832 96.2583 193.522 96.2422 168.583L96.1848 100.645C96.1848 96.5596 95.7354 71.0795 96.5343 69.3118L97.3658 69.0768Z" fill="white"/>
<path d="M284.318 68.8949L316.513 68.8555L316.606 186.002L316.595 224.084C316.592 230.464 316.821 239.129 316.437 245.293C305.891 245.522 294.681 245.428 284.117 245.398L284.318 68.8949Z" fill="white"/>
</g>
<defs>
<clipPath id="clip0_14789_4100">
<rect width="784" height="310" fill="white"/>
</clipPath>
</defs>
</svg>
